<svg width="19" height="14" viewBox="0 0 19 14" fill="none" xmlns="http://www.w3.org/2000/svg">
<path d="M1.725 0C1.2675 0 0.828741 0.18174 0.505241 0.505241C0.181741 0.828741 0 1.2675 0 1.725V4.025C0 4.4825 0.181741 4.92126 0.505241 5.24476C0.828741 5.56826 1.2675 5.75 1.725 5.75H4.025C4.4825 5.75 4.92126 5.56826 5.24476 5.24476C5.56826 4.92126 5.75 4.4825 5.75 4.025V1.725C5.75 1.2675 5.56826 0.828741 5.24476 0.505241C4.92126 0.18174 4.4825 0 4.025 0H1.725ZM1.15 1.725C1.15 1.5725 1.21058 1.42625 1.31841 1.31841C1.42625 1.21058 1.5725 1.15 1.725 1.15H4.025C4.1775 1.15 4.32375 1.21058 4.43159 1.31841C4.53942 1.42625 4.6 1.5725 4.6 1.725V4.025C4.6 4.1775 4.53942 4.32375 4.43159 4.43159C4.32375 4.53942 4.1775 4.6 4.025 4.6H1.725C1.5725 4.6 1.42625 4.53942 1.31841 4.43159C1.21058 4.32375 1.15 4.1775 1.15 4.025V1.725ZM8.625 1.15C8.4725 1.15 8.32625 1.21058 8.21841 1.31841C8.11058 1.42625 8.05 1.5725 8.05 1.725C8.05 1.8775 8.11058 2.02375 8.21841 2.13159C8.32625 2.23942 8.4725 2.3 8.625 2.3H17.825C17.9775 2.3 18.1238 2.23942 18.2316 2.13159C18.3394 2.02375 18.4 1.8775 18.4 1.725C18.4 1.5725 18.3394 1.42625 18.2316 1.31841C18.1238 1.21058 17.9775 1.15 17.825 1.15H8.625ZM8.625 3.45C8.4725 3.45 8.32625 3.51058 8.21841 3.61841C8.11058 3.72625 8.05 3.8725 8.05 4.025C8.05 4.1775 8.11058 4.32375 8.21841 4.43159C8.32625 4.53942 8.4725 4.6 8.625 4.6H15.525C15.6775 4.6 15.8238 4.53942 15.9316 4.43159C16.0394 4.32375 16.1 4.1775 16.1 4.025C16.1 3.8725 16.0394 3.72625 15.9316 3.61841C15.8238 3.51058 15.6775 3.45 15.525 3.45H8.625ZM1.725 8.05C1.2675 8.05 0.828741 8.23174 0.505241 8.55524C0.181741 8.87874 0 9.3175 0 9.775V12.075C0 12.5325 0.181741 12.9713 0.505241 13.2948C0.828741 13.6183 1.2675 13.8 1.725 13.8H4.025C4.4825 13.8 4.92126 13.6183 5.24476 13.2948C5.56826 12.9713 5.75 12.5325 5.75 12.075V9.775C5.75 9.3175 5.56826 8.87874 5.24476 8.55524C4.92126 8.23174 4.4825 8.05 4.025 8.05H1.725ZM1.15 9.775C1.15 9.6225 1.21058 9.47625 1.31841 9.36841C1.42625 9.26058 1.5725 9.2 1.725 9.2H4.025C4.1775 9.2 4.32375 9.26058 4.43159 9.36841C4.53942 9.47625 4.6 9.6225 4.6 9.775V12.075C4.6 12.2275 4.53942 12.3738 4.43159 12.4816C4.32375 12.5894 4.1775 12.65 4.025 12.65H1.725C1.5725 12.65 1.42625 12.5894 1.31841 12.4816C1.21058 12.3738 1.15 12.2275 1.15 12.075V9.775ZM8.625 9.2C8.4725 9.2 8.32625 9.26058 8.21841 9.36841C8.11058 9.47625 8.05 9.6225 8.05 9.775C8.05 9.9275 8.11058 10.0738 8.21841 10.1816C8.32625 10.2894 8.4725 10.35 8.625 10.35H17.825C17.9775 10.35 18.1238 10.2894 18.2316 10.1816C18.3394 10.0738 18.4 9.9275 18.4 9.775C18.4 9.6225 18.3394 9.47625 18.2316 9.36841C18.1238 9.26058 17.9775 9.2 17.825 9.2H8.625ZM8.625 11.5C8.4725 11.5 8.32625 11.5606 8.21841 11.6684C8.11058 11.7762 8.05 11.9225 8.05 12.075C8.05 12.2275 8.11058 12.3738 8.21841 12.4816C8.32625 12.5894 8.4725 12.65 8.625 12.65H15.525C15.6775 12.65 15.8238 12.5894 15.9316 12.4816C16.0394 12.3738 16.1 12.2275 16.1 12.075C16.1 11.9225 16.0394 11.7762 15.9316 11.6684C15.8238 11.5606 15.6775 11.5 15.525 11.5H8.625Z" fill="#002347"/>
</svg>
